<svg width="800" height="800" viewBox="0 0 800 800" fill="none" xmlns="http://www.w3.org/2000/svg">
<path d="M178 604.701V176.923C250.601 211.111 287.755 249.573 296.724 314.103C286.047 313.675 270.367 316.667 270.246 338.462C269.907 399.466 267.247 434.895 261.704 505.556L350.534 504.701C347.876 393.752 342.846 347.009 339.43 245.727C339.43 180.342 366.586 138.203 400.5 100C434.414 138.203 461.57 180.342 461.57 245.727C458.154 347.009 453.124 393.752 450.466 504.701L539.296 505.556C533.753 434.895 531.093 399.466 530.754 338.462C530.633 316.667 514.953 313.675 504.276 314.103C513.245 249.573 550.399 211.111 623 176.923V604.701L455.591 603.846C436.909 647.408 426.309 670.327 400.5 700C374.691 670.327 364.091 647.408 345.409 603.846L178 604.701Z" stroke="black" stroke-width="8"/>
</svg>
