<svg width="800" height="800" viewBox="0 0 800 800" fill="none" xmlns="http://www.w3.org/2000/svg">
<path d="M177 563.156C178.073 388.673 175.932 280.846 185.741 138.232C308.448 190.677 295.973 375.668 261.262 468.668C257.796 477.953 244.743 498.707 250.206 516.731C288.607 521.583 320.483 521.304 339.255 512.908C347.803 509.085 378.044 464.845 362.747 464.845C327.173 464.845 374.219 428.797 370.096 274.776C372.613 221.055 371.29 166.051 364.932 100H435.068C428.71 166.051 427.387 221.055 429.904 274.776C425.781 428.797 472.827 464.845 437.253 464.845C421.956 464.845 452.197 509.085 460.745 512.908C479.517 521.304 511.393 521.583 549.794 516.731C555.257 498.707 542.204 477.953 538.738 468.668C504.027 375.668 491.552 190.677 614.259 138.232C624.068 280.846 621.927 388.673 623 563.156H447.139C434.288 586.809 427.416 619.257 425.869 647.813C420.548 654.292 422.486 672.184 428.512 691.507C432.057 702.873 367.969 702.789 371.488 691.507C377.514 672.184 379.452 654.292 374.131 647.813C372.584 619.257 365.712 586.809 352.861 563.156H177Z" stroke="black" stroke-width="8"/>
</svg>
