<svg width="400" height="618" viewBox="0 0 400 618" fill="none" xmlns="http://www.w3.org/2000/svg">
<g clip-path="url(#clip0_1_7)">
<path d="M189.732 612.154C152.708 589.512 125.108 556.143 113.528 520.022L110.007 509.04L54.8526 508.744C24.5176 508.58 -0.1657 508.066 0.0008378 507.598C0.167567 507.129 0.30344 406.342 0.30344 283.625V60.5031L5.97124 63.4716C36.5657 79.495 67.2297 111.14 85.6758 145.725C99.6427 171.912 105.892 195.228 110.5 238.336C111.833 250.813 113.772 267.406 114.808 275.209C116.502 287.972 122.606 338.505 122.623 339.904C122.627 340.217 119.483 340.524 115.638 340.589C102.645 340.807 89.0338 349.351 83.9158 360.499C77.1611 375.213 84.4382 389.329 104.253 399.95C105.542 400.64 105.26 402.733 102.815 410.638C101.142 416.043 99.3991 422.809 98.9409 425.672C98.1521 430.601 97.9391 430.838 94.9288 430.13C82.99 427.322 65.7484 415.269 58.4731 404.644C47.8219 389.09 45.0264 367.675 51.5036 351.253C56.0726 339.67 64.8072 328.899 75.8208 321.267C80.7466 317.853 85.0493 314.393 85.3823 313.578C85.7151 312.763 84.9748 304.435 83.7373 295.072C82.4997 285.708 79.8309 263.746 77.8066 246.267C72.8441 203.417 67.2527 182.602 54.1535 158.21C48.8148 148.269 35.2174 127.783 33.9105 127.711C33.4088 127.668 33.1363 206.954 33.3049 303.868L33.6116 480.074L101.779 480.366L169.946 480.658L169.606 494.552L169.266 508.446L158.063 508.772C151.901 508.951 146.859 509.544 146.859 510.088C146.859 513.268 154.98 533.514 159.316 541.142C164.699 550.614 179.111 569.224 181.681 570.022C182.876 570.395 183.19 560.385 183.168 522.444C183.145 478.295 182.962 474.024 180.92 469.812C178.083 463.96 168.87 456.343 161.596 453.837C158.487 452.765 155.557 451.585 155.084 451.215C154.197 450.518 155.597 439.142 157.854 428.711C159.085 423.02 159.29 422.784 162.388 423.465C167.95 424.688 178.596 430.446 189.584 438.173L200.141 445.598L205.9 441.123C219.541 430.524 237.748 421.211 240.248 423.553C241.251 424.493 244.953 444.061 244.962 448.468C244.965 450.38 243.18 451.697 236.791 454.494C227.454 458.583 222.73 462.362 219.42 468.392C217.25 472.346 217.109 475.622 217.109 522.058V571.513L222.484 565.842C234.17 553.511 243.672 537.739 249.062 521.723C250.806 516.541 252.234 511.561 252.234 510.657C252.234 509.343 250.042 509.013 241.333 509.013H230.432V494.826V480.638H298.259H366.086V304.148C366.086 207.078 365.869 127.658 365.606 127.658C364.555 127.658 349.866 149.849 345.473 158.073C333.525 180.443 327.104 201.907 323.674 230.941C322.384 241.866 319.585 264.629 317.453 281.527C315.322 298.425 313.908 313.058 314.313 314.045C314.717 315.032 317.947 317.648 321.491 319.859C365.8 347.504 359.849 407.656 310.793 427.986C307.065 429.531 303.482 430.628 302.83 430.424C302.178 430.218 300.094 424.453 298.199 417.608C296.304 410.763 294.435 404.14 294.045 402.892C293.487 401.105 294.396 400.06 298.321 397.98C311.5 390.995 317.585 382.508 317.585 371.112C317.585 362.382 314.77 356.609 307.436 350.298C300.368 344.216 292.276 340.745 284.33 340.388C280.999 340.237 278.063 339.806 277.806 339.427C277.092 338.377 278.512 324.821 283.7 283.151C286.303 262.239 289.037 239 289.776 231.509C294.242 186.194 306.396 152.556 330.137 119.798C340.703 105.22 361.515 84.7689 376.375 74.3616C386.717 67.1188 397.446 60.6937 399.198 60.6937C399.639 60.6937 400 161.565 400 284.853V509.013H344.285C289.925 509.013 288.57 509.068 288.57 511.218C288.57 514.966 280.551 536.589 276.068 544.931C261.541 571.963 232.746 600.572 206.083 614.464L199.297 618L189.732 612.154ZM107.256 454.254C108.148 438.806 111.803 420.433 116.767 406.449C123.505 387.47 137.883 363.244 150.199 350.119C155.577 344.389 158.744 338.999 163.091 328.175C175.162 298.124 179.454 261.958 177.19 209.381C174.898 156.156 172.304 79.8291 172.299 65.4736C172.29 42.5168 177.422 25.6282 189.161 9.96476C198.741 -2.81858 199.311 -2.89751 207.576 7.40938C218.274 20.7491 224.993 37.6034 226.332 54.4555C226.729 59.4496 225.783 95.9675 224.231 135.607C219.754 249.94 220.465 271.746 229.799 306.537C235.508 327.813 242.209 342.763 250.224 352.108C275.429 381.491 289.932 416.519 291.814 452.552L292.569 467.023H274.824H257.079L257.065 460.497C257.047 452.01 253.007 427.924 249.78 417.084C246.472 405.968 236.956 387.355 228.476 375.413C220.977 364.851 202.107 345.579 199.265 345.579C198.263 345.579 192.193 350.591 185.777 356.717C168.389 373.317 157.249 391.502 149.971 415.163C146.641 425.99 142.031 452.934 142.02 461.632L142.015 467.023H124.268H106.52L107.256 454.254Z" fill="white"/>
</g>
<defs>
<clipPath id="clip0_1_7">
<rect width="400" height="618" fill="white"/>
</clipPath>
</defs>
</svg>
